<svg width="177" height="45" viewBox="0 0 177 45" fill="none" xmlns="http://www.w3.org/2000/svg">
<path d="M22.9924 0.0238497C22.6651 -0.00794729 22.3353 -0.00794989 22.008 0.0238419L22.1295 5.68191C22.2526 5.67927 22.3762 5.67793 22.5002 5.67793C22.6242 5.67793 22.7477 5.67927 22.8709 5.68191L22.9924 0.0238497Z" fill="white"/>
<path d="M19.2204 1.20305C19.4967 0.968817 19.7919 0.768789 20.1003 0.602964L20.6607 5.77684C20.4164 5.80331 20.1738 5.83497 19.9332 5.87172L19.2204 1.20305Z" fill="white"/>
<path d="M17.6199 2.56701L16.8735 3.20305L17.788 6.34525C18.0216 6.27724 18.2574 6.21418 18.4953 6.15618L17.6199 2.56701Z" fill="white"/>
<path d="M14.6258 4.60035C14.8968 4.51388 15.1601 4.40476 15.4129 4.27414L16.402 6.81561C16.1741 6.9043 15.9486 6.99784 15.7256 7.09612L14.6258 4.60035Z" fill="white"/>
<path d="M12.8344 4.87633L11.8561 4.9544L13.7767 8.11269C13.9855 7.98571 14.1972 7.8632 14.4117 7.74527L12.8344 4.87633Z" fill="white"/>
<path d="M8.71238 5.31985C9.04789 5.21887 9.39817 5.15154 9.75934 5.12174L12.5562 8.92977C12.3586 9.07488 12.1643 9.22423 11.9733 9.37769L8.71238 5.31985Z" fill="white"/>
<path d="M6.95375 6.25998C6.70077 6.4683 6.46839 6.70068 6.26006 6.95366L10.3479 10.8679C10.5175 10.6908 10.6909 10.5173 10.868 10.3477L6.95375 6.25998Z" fill="white"/>
<path fill-rule="evenodd" clip-rule="evenodd" d="M20.8508 30.1054H17.6581V15.2169H23.5873C27.0495 15.2169 29.1434 17.2693 29.1434 20.2339V20.2754C29.1434 23.6339 26.5312 25.3753 23.2764 25.3753H20.8508V30.1054ZM20.8508 18.0986V22.5351H23.38C24.9764 22.5351 25.9093 21.5815 25.9093 20.3376V20.2961C25.9093 18.8656 24.9142 18.0986 23.3178 18.0986H20.8508Z" fill="white"/>
<path fill-rule="evenodd" clip-rule="evenodd" d="M22.5002 35.1373C29.4801 35.1373 35.1384 29.4791 35.1384 22.4993C35.1384 15.5194 29.4801 9.86117 22.5002 9.86117C15.5203 9.86117 9.86204 15.5194 9.86204 22.4993C9.86204 29.4791 15.5203 35.1373 22.5002 35.1373ZM22.5002 34.81C29.2993 34.81 34.811 29.2983 34.811 22.4993C34.811 15.7002 29.2993 10.1885 22.5002 10.1885C15.7011 10.1885 10.1894 15.7002 10.1894 22.4993C10.1894 29.2983 15.7011 34.81 22.5002 34.81Z" fill="white"/>
<path fill-rule="evenodd" clip-rule="evenodd" d="M22.5001 37.3841C30.7209 37.3841 37.3851 30.7199 37.3851 22.4992C37.3851 14.2785 30.7209 7.61433 22.5001 7.61433C14.2794 7.61433 7.61518 14.2785 7.61518 22.4992C7.61518 30.7199 14.2794 37.3841 22.5001 37.3841ZM22.5001 36.5657C30.2689 36.5657 36.5667 30.2679 36.5667 22.4992C36.5667 14.7305 30.2689 8.43269 22.5001 8.43269C14.7314 8.43269 8.43354 14.7305 8.43354 22.4992C8.43354 30.2679 14.7314 36.5657 22.5001 36.5657Z" fill="white"/>
<path d="M3.20311 16.8734L2.56706 17.6197L6.15625 18.4951C6.21426 18.2573 6.27733 18.0215 6.34533 17.7878L3.20311 16.8734Z" fill="white"/>
<path d="M4.2742 15.4127C4.40481 15.16 4.51393 14.8967 4.6004 14.6256L7.09621 15.7254C6.99793 15.9485 6.90438 16.174 6.8157 16.4018L4.2742 15.4127Z" fill="white"/>
<path d="M4.95443 11.856L4.87637 12.8343L7.74536 14.4116C7.86329 14.1971 7.9858 13.9853 8.11278 13.7765L4.95443 11.856Z" fill="white"/>
<path d="M5.12178 9.75921C5.15158 9.39804 5.21892 9.04776 5.3199 8.71226L9.37779 11.9732C9.22433 12.1641 9.07498 12.3585 8.92987 12.556L5.12178 9.75921Z" fill="white"/>
<path d="M24.9001 0.603005C25.2085 0.768836 25.5036 0.968871 25.7799 1.20311L25.0672 5.87172C24.8265 5.83497 24.584 5.80331 24.3396 5.77684L24.9001 0.603005Z" fill="white"/>
<path d="M28.1268 3.20311L27.3805 2.56707L26.5051 6.15618C26.7429 6.21418 26.9787 6.27725 27.2124 6.34525L28.1268 3.20311Z" fill="white"/>
<path d="M29.5875 4.27418C29.8402 4.40479 30.1035 4.51391 30.3746 4.60038L29.2748 7.09612C29.0518 6.99784 28.8263 6.9043 28.5984 6.81561L29.5875 4.27418Z" fill="white"/>
<path d="M33.1442 4.95441L32.1659 4.87634L30.5887 7.74527C30.8032 7.8632 31.0149 7.98571 31.2237 8.11269L33.1442 4.95441Z" fill="white"/>
<path d="M35.241 5.12175C35.6022 5.15155 35.9525 5.21889 36.288 5.31987L33.0271 9.37769C32.8361 9.22423 32.6418 9.07488 32.4442 8.92977L35.241 5.12175Z" fill="white"/>
<path d="M38.7403 6.95371C38.5319 6.70073 38.2996 6.46835 38.0466 6.26002L34.1324 10.3477C34.3095 10.5173 34.4829 10.6908 34.6525 10.8679L38.7403 6.95371Z" fill="white"/>
<path d="M39.6804 8.71232C39.7814 9.04782 39.8487 9.39811 39.8785 9.75927L36.0705 12.556C35.9254 12.3585 35.776 12.1641 35.6226 11.9732L39.6804 8.71232Z" fill="white"/>
<path d="M40.1239 12.8343L40.0459 11.856L36.8876 13.7765C37.0146 13.9853 37.1371 14.1971 37.255 14.4116L40.1239 12.8343Z" fill="white"/>
<path d="M40.3999 14.6257C40.4864 14.8967 40.5955 15.16 40.7261 15.4128L38.1847 16.4018C38.096 16.174 38.0024 15.9485 37.9042 15.7254L40.3999 14.6257Z" fill="white"/>
<path d="M42.4332 17.6197L41.7972 16.8734L38.655 17.7878C38.723 18.0215 38.7861 18.2573 38.8441 18.4951L42.4332 17.6197Z" fill="white"/>
<path d="M43.7972 19.2203C44.0314 19.4966 44.2315 19.7917 44.3973 20.1001L39.2234 20.6605C39.197 20.4162 39.1653 20.1737 39.1286 19.933L43.7972 19.2203Z" fill="white"/>
<path d="M44.9764 22.0078L39.3184 22.1293C39.321 22.2525 39.3224 22.376 39.3224 22.5C39.3224 22.624 39.321 22.7475 39.3184 22.8707L44.9764 22.9922C45.0082 22.6649 45.0082 22.3351 44.9764 22.0078Z" fill="white"/>
<path d="M44.3973 24.8999C44.2315 25.2083 44.0314 25.5034 43.7972 25.7797L39.1286 25.067C39.1653 24.8263 39.197 24.5838 39.2234 24.3395L44.3973 24.8999Z" fill="white"/>
<path d="M41.7972 28.1266L42.4332 27.3803L38.8441 26.5049C38.7861 26.7427 38.723 26.9785 38.655 27.2122L41.7972 28.1266Z" fill="white"/>
<path d="M40.7261 29.5872C40.5955 29.84 40.4864 30.1033 40.3999 30.3743L37.9042 29.2746C38.0024 29.0515 38.096 28.826 38.1847 28.5982L40.7261 29.5872Z" fill="white"/>
<path d="M40.0459 33.144L40.1239 32.1657L37.255 30.5884C37.1371 30.8029 37.0146 31.0147 36.8876 31.2235L40.0459 33.144Z" fill="white"/>
<path d="M39.8785 35.2407C39.8487 35.6019 39.7814 35.9522 39.6804 36.2877L35.6226 33.0268C35.776 32.8359 35.9254 32.6415 36.0705 32.444L39.8785 35.2407Z" fill="white"/>
<path d="M38.0466 38.74C38.2996 38.5317 38.5319 38.2993 38.7403 38.0463L34.6525 34.1321C34.4829 34.3092 34.3095 34.4827 34.1324 34.6523L38.0466 38.74Z" fill="white"/>
<path d="M36.288 39.6801C35.9525 39.7811 35.6022 39.8484 35.241 39.8783L32.4442 36.0702C32.6418 35.9251 32.8361 35.7758 33.0271 35.6223L36.288 39.6801Z" fill="white"/>
<path d="M32.1659 40.1237L33.1442 40.0456L31.2237 36.8873C31.0149 37.0143 30.8032 37.1368 30.5887 37.2547L32.1659 40.1237Z" fill="white"/>
<path d="M30.3746 40.3996C30.1035 40.4861 29.8402 40.5952 29.5875 40.7258L28.5984 38.1844C28.8263 38.0957 29.0518 38.0022 29.2748 37.9039L30.3746 40.3996Z" fill="white"/>
<path d="M27.3805 42.4329L28.1268 41.7969L27.2124 38.6548C26.9787 38.7228 26.7429 38.7858 26.5051 38.8438L27.3805 42.4329Z" fill="white"/>
<path d="M25.7799 43.7969C25.5036 44.0311 25.2085 44.2312 24.9001 44.397L24.3396 39.2232C24.584 39.1967 24.8265 39.165 25.0672 39.1283L25.7799 43.7969Z" fill="white"/>
<path d="M22.008 44.9762C22.3353 45.0079 22.6651 45.0079 22.9924 44.9761L22.8709 39.3181C22.7477 39.3207 22.6242 39.3221 22.5002 39.3221C22.3762 39.3221 22.2526 39.3207 22.1295 39.3181L22.008 44.9762Z" fill="white"/>
<path d="M20.1003 44.397C19.7919 44.2312 19.4967 44.0312 19.2204 43.7969L19.9332 39.1283C20.1738 39.165 20.4164 39.1967 20.6607 39.2232L20.1003 44.397Z" fill="white"/>
<path d="M16.8735 41.7969L17.6199 42.433L18.4953 38.8438C18.2574 38.7858 18.0216 38.7228 17.788 38.6548L16.8735 41.7969Z" fill="white"/>
<path d="M15.4129 40.7259C15.1601 40.5952 14.8968 40.4861 14.6258 40.3996L15.7256 37.9039C15.9486 38.0022 16.1741 38.0957 16.402 38.1844L15.4129 40.7259Z" fill="white"/>
<path d="M11.8561 40.0456L12.8344 40.1237L14.4117 37.2547C14.1972 37.1368 13.9855 37.0143 13.7766 36.8873L11.8561 40.0456Z" fill="white"/>
<path d="M9.75934 39.8783C9.39817 39.8485 9.04788 39.7811 8.71237 39.6801L11.9733 35.6223C12.1642 35.7758 12.3586 35.9251 12.5562 36.0702L9.75934 39.8783Z" fill="white"/>
<path d="M6.26006 38.0463C6.46838 38.2993 6.70076 38.5317 6.95375 38.74L10.868 34.6523C10.6909 34.4826 10.5175 34.3092 10.3479 34.1321L6.26006 38.0463Z" fill="white"/>
<path d="M5.3199 36.2877C5.21892 35.9522 5.15158 35.6019 5.12178 35.2408L8.92986 32.4439C9.07498 32.6415 9.22433 32.8359 9.37779 33.0268L5.3199 36.2877Z" fill="white"/>
<path d="M4.87636 32.1657L4.95443 33.144L8.11278 31.2235C7.9858 31.0147 7.86328 30.8029 7.74536 30.5884L4.87636 32.1657Z" fill="white"/>
<path d="M4.6004 30.3744C4.51393 30.1033 4.40481 29.84 4.27419 29.5873L6.8157 28.5982C6.90438 28.826 6.99793 29.0515 7.0962 29.2746L4.6004 30.3744Z" fill="white"/>
<path d="M2.56706 27.3803L3.20311 28.1266L6.34533 27.2122C6.27732 26.9785 6.21426 26.7427 6.15625 26.5049L2.56706 27.3803Z" fill="white"/>
<path d="M1.20309 25.7797C0.968852 25.5034 0.768822 25.2083 0.60299 24.8999L5.77692 24.3395C5.80338 24.5838 5.83505 24.8263 5.87179 25.067L1.20309 25.7797Z" fill="white"/>
<path d="M0.0238447 22.9922L5.68199 22.8707C5.67934 22.7475 5.67801 22.624 5.67801 22.5C5.67801 22.376 5.67934 22.2525 5.68199 22.1293L0.0238447 22.0078C-0.00794824 22.3351 -0.00794824 22.6649 0.0238447 22.9922Z" fill="white"/>
<path d="M0.60299 20.1001C0.768822 19.7917 0.968852 19.4966 1.20309 19.2203L5.87179 19.933C5.83505 20.1737 5.80338 20.4162 5.77692 20.6605L0.60299 20.1001Z" fill="white"/>
<path fill-rule="evenodd" clip-rule="evenodd" d="M59.9182 33.0777V12.0248H67.4225C69.0604 12.0248 70.4174 12.3229 71.4933 12.9192C72.5693 13.5154 73.3745 14.3309 73.9091 15.3657C74.4436 16.3937 74.7109 17.5519 74.7109 18.8403C74.7109 20.1355 74.4402 21.3006 73.8988 22.3354C73.3643 23.3634 72.5556 24.1789 71.4728 24.782C70.3968 25.3782 69.0433 25.6763 67.4122 25.6763H63.0947V33.0777H59.9182ZM67.1244 22.983H63.0947V14.7489H67.0833C68.1387 14.7489 68.9885 14.9237 69.6327 15.2732C70.2837 15.6227 70.76 16.1059 71.0616 16.7227C71.3631 17.3394 71.5139 18.0453 71.5139 18.8403C71.5139 19.6353 71.3631 20.3446 71.0616 20.9682C70.76 21.5918 70.2872 22.0853 69.643 22.4485C68.9987 22.8049 68.1592 22.983 67.1244 22.983Z" fill="white"/>
<path fill-rule="evenodd" clip-rule="evenodd" d="M78.1911 32.8722C78.9997 33.2422 79.9044 33.4273 80.905 33.4273C81.7753 33.4273 82.5223 33.3005 83.146 33.0469C83.7696 32.7933 84.2802 32.4747 84.6777 32.0909C85.0751 31.7071 85.3733 31.3165 85.572 30.919H85.6954V33.0777H88.6971V22.5924C88.6971 21.4411 88.4984 20.5056 88.1009 19.786C87.7034 19.0596 87.1928 18.5011 86.5692 18.1104C85.9524 17.7198 85.2876 17.4525 84.5749 17.3086C83.869 17.1578 83.2008 17.0825 82.5703 17.0825C81.6177 17.0825 80.7096 17.2195 79.8461 17.4936C78.9826 17.7609 78.2185 18.1927 77.5537 18.7889C76.8958 19.3783 76.3955 20.1527 76.0529 21.1121L78.9415 21.77C79.1677 21.2149 79.5754 20.7112 80.1648 20.2589C80.761 19.7997 81.5766 19.5702 82.6114 19.5702C83.6051 19.5702 84.3521 19.8169 84.8524 20.3103C85.3596 20.8037 85.6131 21.4993 85.6131 22.3971V22.469C85.6131 22.8391 85.4795 23.1064 85.2122 23.2709C84.9449 23.4353 84.5166 23.5553 83.9272 23.6307C83.3379 23.6992 82.5703 23.7883 81.6245 23.8979C80.8775 23.987 80.1443 24.1172 79.4247 24.2886C78.7051 24.4599 78.054 24.7135 77.4715 25.0493C76.889 25.3851 76.4264 25.8408 76.0837 26.4165C75.741 26.9921 75.5697 27.7254 75.5697 28.6163C75.5697 29.6512 75.8027 30.5249 76.2687 31.2377C76.7416 31.9504 77.3824 32.4952 78.1911 32.8722ZM83.7525 30.4564C83.1494 30.7922 82.4229 30.9601 81.5731 30.9601C80.7028 30.9601 79.9866 30.7682 79.4247 30.3845C78.8627 29.9938 78.5817 29.4182 78.5817 28.6575C78.5817 28.1092 78.7256 27.6706 79.0135 27.3416C79.3082 27.0058 79.6988 26.7488 80.1854 26.5707C80.6788 26.3925 81.2236 26.2657 81.8199 26.1903C82.0734 26.156 82.3887 26.1149 82.7656 26.067C83.1425 26.0121 83.5298 25.9539 83.9272 25.8922C84.3247 25.8237 84.6777 25.7449 84.9861 25.6558C85.3013 25.5598 85.5138 25.457 85.6234 25.3474V27.3828C85.6234 28.0064 85.4624 28.5923 85.1403 29.1406C84.825 29.682 84.3624 30.1206 83.7525 30.4564Z" fill="white"/>
<path d="M98.4248 17.288V19.7552H95.1867V28.4416C95.1867 29.0378 95.2758 29.4867 95.4539 29.7882C95.6321 30.0829 95.8617 30.2851 96.1427 30.3947C96.4305 30.4975 96.7424 30.5489 97.0782 30.5489C97.3249 30.5489 97.5408 30.5318 97.7258 30.4975C97.9108 30.4633 98.0547 30.4359 98.1575 30.4153L98.7127 32.9544C98.5345 33.0229 98.2809 33.0915 97.952 33.16C97.623 33.2354 97.2118 33.2765 96.7184 33.2833C95.9097 33.297 95.1558 33.1531 94.4568 32.8516C93.7578 32.5501 93.1924 32.084 92.7606 31.4535C92.3289 30.8231 92.113 30.0315 92.113 29.0789V19.7552H89.8V17.288H92.113V13.5051H95.1867V17.288H98.4248Z" fill="white"/>
<path fill-rule="evenodd" clip-rule="evenodd" d="M102.704 32.3993C103.828 33.064 105.168 33.3964 106.724 33.3964C107.875 33.3964 108.9 33.2217 109.797 32.8722C110.702 32.5158 111.452 32.0189 112.049 31.3816C112.652 30.7374 113.07 29.987 113.303 29.1303L110.394 28.6061C110.209 29.0995 109.941 29.5141 109.592 29.8499C109.242 30.1857 108.828 30.4393 108.348 30.6106C107.868 30.7751 107.337 30.8573 106.754 30.8573C105.857 30.8573 105.072 30.6654 104.4 30.2817C103.729 29.891 103.205 29.3256 102.828 28.5855C102.483 27.8963 102.299 27.0705 102.275 26.1081H113.498V25.0184C113.498 23.5861 113.306 22.3697 112.922 21.3691C112.539 20.3617 112.014 19.5427 111.35 18.9122C110.685 18.2818 109.934 17.8192 109.098 17.5245C108.262 17.2298 107.399 17.0825 106.508 17.0825C105.041 17.0825 103.76 17.4285 102.663 18.1207C101.573 18.8129 100.724 19.7758 100.114 21.0093C99.5106 22.2429 99.2091 23.6684 99.2091 25.2857C99.2091 26.9236 99.5106 28.3525 100.114 29.5724C100.724 30.7854 101.587 31.7277 102.704 32.3993ZM102.28 23.8054C102.317 23.1267 102.486 22.4928 102.786 21.9037C103.136 21.2252 103.629 20.6769 104.267 20.2589C104.911 19.834 105.665 19.6216 106.528 19.6216C107.323 19.6216 108.015 19.8032 108.605 20.1664C109.201 20.5296 109.664 21.0265 109.993 21.6569C110.322 22.2806 110.486 22.9967 110.486 23.8054H102.28Z" fill="white"/>
<path d="M118.245 23.7026V33.0777H115.172V17.288H118.122V19.858H118.317C118.68 19.0219 119.249 18.3503 120.024 17.8432C120.805 17.336 121.788 17.0825 122.974 17.0825C124.05 17.0825 124.992 17.3086 125.801 17.7609C126.61 18.2064 127.237 18.8711 127.682 19.7552C128.128 20.6392 128.35 21.7323 128.35 23.0344V33.0777H125.277V23.4045C125.277 22.26 124.979 21.3657 124.382 20.7215C123.786 20.0704 122.967 19.7449 121.925 19.7449C121.213 19.7449 120.579 19.8991 120.024 20.2075C119.475 20.5159 119.04 20.9682 118.718 21.5644C118.403 22.1538 118.245 22.8665 118.245 23.7026Z" fill="white"/>
<path d="M138.106 19.7552V17.288H134.868V13.5051H131.794V17.288H129.482V19.7552H131.794V29.0789C131.794 30.0315 132.01 30.8231 132.442 31.4535C132.874 32.084 133.439 32.5501 134.138 32.8516C134.837 33.1531 135.591 33.297 136.4 33.2833C136.893 33.2765 137.305 33.2354 137.633 33.16C137.962 33.0915 138.216 33.0229 138.394 32.9544L137.839 30.4153C137.736 30.4359 137.592 30.4633 137.407 30.4975C137.222 30.5318 137.006 30.5489 136.76 30.5489C136.424 30.5489 136.112 30.4975 135.824 30.3947C135.543 30.2851 135.314 30.0829 135.135 29.7882C134.957 29.4867 134.868 29.0378 134.868 28.4416V19.7552H138.106Z" fill="white"/>
<path fill-rule="evenodd" clip-rule="evenodd" d="M146.405 33.3964C144.849 33.3964 143.51 33.064 142.386 32.3993C141.269 31.7277 140.405 30.7854 139.795 29.5724C139.192 28.3525 138.891 26.9236 138.891 25.2857C138.891 23.6684 139.192 22.2429 139.795 21.0093C140.405 19.7758 141.255 18.8129 142.345 18.1207C143.441 17.4285 144.723 17.0825 146.189 17.0825C147.08 17.0825 147.944 17.2298 148.78 17.5245C149.616 17.8192 150.366 18.2818 151.031 18.9122C151.696 19.5427 152.22 20.3617 152.604 21.3691C152.988 22.3697 153.18 23.5861 153.18 25.0184V26.1081H141.957C141.98 27.0705 142.165 27.8963 142.509 28.5855C142.886 29.3256 143.41 29.891 144.082 30.2817C144.754 30.6654 145.538 30.8573 146.436 30.8573C147.019 30.8573 147.55 30.7751 148.029 30.6106C148.509 30.4393 148.924 30.1857 149.273 29.8499C149.623 29.5141 149.89 29.0995 150.075 28.6061L152.984 29.1303C152.751 29.987 152.333 30.7374 151.73 31.3816C151.134 32.0189 150.383 32.5158 149.479 32.8722C148.581 33.2217 147.557 33.3964 146.405 33.3964ZM142.468 21.9037C142.167 22.4928 141.999 23.1267 141.962 23.8054H150.168C150.168 22.9967 150.003 22.2806 149.674 21.6569C149.345 21.0265 148.883 20.5296 148.286 20.1664C147.697 19.8032 147.005 19.6216 146.21 19.6216C145.346 19.6216 144.592 19.834 143.948 20.2589C143.311 20.6769 142.817 21.2252 142.468 21.9037Z" fill="white"/>
<path fill-rule="evenodd" clip-rule="evenodd" d="M157.79 32.4096C158.791 33.0606 159.928 33.3861 161.203 33.3861C162.162 33.3861 162.944 33.2251 163.547 32.903C164.15 32.5809 164.623 32.204 164.965 31.7722C165.315 31.3405 165.582 30.9567 165.767 30.6209H166.024V33.0777H169.026V12.0248H165.952V19.8477H165.767C165.582 19.5188 165.322 19.1384 164.986 18.7067C164.657 18.2749 164.191 17.898 163.588 17.5759C162.992 17.2469 162.204 17.0825 161.224 17.0825C159.956 17.0825 158.822 17.4046 157.821 18.0487C156.82 18.6929 156.032 19.6216 155.457 20.8346C154.888 22.0476 154.603 23.5073 154.603 25.2137C154.603 26.9202 154.884 28.3833 155.446 29.6032C156.015 30.8162 156.796 31.7517 157.79 32.4096ZM164.123 30.0658C163.513 30.5318 162.766 30.7648 161.881 30.7648C160.97 30.7648 160.202 30.5215 159.579 30.0349C158.962 29.5415 158.496 28.8733 158.181 28.0304C157.865 27.1875 157.708 26.2383 157.708 25.1829C157.708 24.1412 157.862 23.2058 158.17 22.3765C158.486 21.5473 158.952 20.8928 159.569 20.4131C160.185 19.9334 160.956 19.6935 161.881 19.6935C162.779 19.6935 163.533 19.9231 164.143 20.3823C164.753 20.8414 165.216 21.4822 165.531 22.3046C165.846 23.127 166.004 24.0864 166.004 25.1829C166.004 26.2931 165.843 27.2663 165.521 28.1024C165.205 28.9384 164.739 29.5929 164.123 30.0658Z" fill="white"/>
<path d="M174.126 12.8904L174.829 14.5276H175.105L175.804 12.8932V14.5276H176.311V11.9915H175.698L174.967 13.7902L174.233 11.9915H173.62V14.5276H174.126V12.8904Z" fill="white"/>
<path d="M171.9 12.4257V14.5276H172.407V12.4257H173.179V11.9915H171.129V12.4257H171.9Z" fill="white"/>
</svg>
