<svg width="174" height="35" viewBox="0 0 174 35" fill="none" xmlns="http://www.w3.org/2000/svg">
<path d="M165.716 1.28849H164.536V0.583008H167.659V1.28849H166.478V5.11702H165.716L165.716 1.28849ZM168.395 0.583008H169.703L170.845 4.41252H170.922L172.064 0.583008H173.372V5.11702H172.636V1.28849H172.559L171.404 5.11702H170.363L169.208 1.28849H169.131V5.11702H168.395V0.583008Z" fill="#D92231"/>
<path d="M118.767 17.486C118.767 11.6064 116.487 6.40133 110.417 6.40133C104.336 6.40133 101.993 11.6064 101.993 17.486C101.993 23.3655 104.336 28.5762 110.417 28.5762C116.487 28.5762 118.767 23.3657 118.767 17.486ZM127.718 17.486C127.718 27.5386 120.551 34.9716 110.4 34.9716C100.067 34.9716 93.0426 27.8504 93.0426 17.4915C93.0425 7.69398 99.9752 0 110.4 0C120.551 0 127.718 7.43884 127.718 17.486Z" fill="#D92231"/>
<path d="M58.6218 14.2423H42.9244C43.0808 13.1234 43.4156 12.0364 43.9161 11.0218C45.3248 8.22089 47.9825 6.43483 51.3032 6.43483C55.8497 6.43483 58.6218 9.49663 58.6218 14.0382V14.2423ZM66.7688 14.3781C66.3518 9.83672 64.6713 6.1741 61.8479 3.70186C59.1447 1.31478 55.5152 0.0166016 51.0146 0.0166016C47.6969 0.0166016 43.5047 1.15638 40.4184 3.66795C36.7461 6.67314 33.8883 11.3675 33.8883 17.6951C33.8883 23.1495 35.6801 27.5381 38.8893 30.5032C42.0271 33.4176 46.4821 34.9996 51.9891 34.9996C56.4297 34.9996 61.7965 33.3441 64.0827 31.9321C64.8941 31.4446 65.1513 31.2235 64.9485 30.4183L63.5053 26.3815C63.3453 25.7353 62.5967 25.5593 62.0021 25.8598C61.095 26.3235 60.164 26.7399 59.2131 27.1072C57.23 27.8388 55.1581 28.3374 53.2063 28.3374C49.0885 28.3374 46.7308 27.2261 44.942 25.1625C43.8045 23.8585 43.1388 22.2198 42.9328 20.3148H65.6831C66.5002 20.3148 66.8718 19.7534 66.8718 18.7837V17.1621C66.8718 16.3626 66.8376 15.1323 66.7688 14.3781Z" fill="#D92231"/>
<path d="M74.9478 4.83593C77.5197 1.5475 81.5374 0.0449219 88.1101 0.0449219C89.6647 0.0456885 91.2155 0.199587 92.7395 0.504354C93.5111 0.685886 93.6369 1.29222 93.4882 2.08045L92.711 5.87921C92.5396 6.5881 92.3338 6.79216 91.7738 6.79216C91.6189 6.79084 91.4642 6.77942 91.3109 6.758C90.7678 6.68451 89.2189 6.51993 88.5789 6.51993C85.3096 6.51993 83.7607 7.33069 82.592 8.54421C81.2345 9.98989 81.1944 12.1163 81.1944 15.9206V32.8111C81.1944 33.9223 80.7031 34.546 79.5028 34.546H74.3019C73.1931 34.546 72.713 34.0017 72.6213 32.8111V16.2268C72.6213 10.1884 72.9731 7.35913 74.9478 4.83593Z" fill="#D92231"/>
<path d="M145.447 11.8671C146.61 10.6595 149.322 7.33703 152.325 1.71261C152.837 0.748537 153.297 0.504883 153.968 0.504883H159.546C160.055 0.504883 160.655 0.748537 160.329 1.71261C158.112 8.23835 153.048 13.9706 150.248 16.9304C153.297 19.7991 158.718 26.5918 161.264 33.2596C161.49 33.8605 161.378 34.5465 160.106 34.5465H153.431C152.745 34.5465 152.194 34.484 151.734 33.3446C150.079 29.2565 147.493 24.9589 144.538 22.1351C141.303 25.5372 138.851 29.7215 137.199 33.3446C136.788 34.2347 136.388 34.5465 135.505 34.5465H129.381C128.966 34.5465 128.549 34.0759 128.821 33.3446C130.641 28.389 134.268 22.2203 139.468 17.5766C135.376 12.6892 131.458 6.73029 129.915 1.71261C129.678 0.958409 130.084 0.504883 130.655 0.504883H137.842C138.628 0.504883 139.034 0.822291 139.417 1.71261C141.189 5.80052 143.604 9.69566 145.447 11.8671Z" fill="#D92231"/>
<path d="M16.708 11.8671C17.8682 10.6595 20.5774 7.33703 23.5922 1.71261C24.098 0.748537 24.5495 0.504883 25.2296 0.504883H30.8194C31.3165 0.504883 31.9166 0.748537 31.5909 1.71261C29.3617 8.23835 24.3037 13.9706 21.5033 16.9304C24.5609 19.805 29.9791 26.5973 32.5397 33.2596C32.7568 33.8605 32.6423 34.5465 31.3595 34.5465H24.6782C23.9894 34.5465 23.4665 34.484 22.9951 33.3446C21.3432 29.2565 18.7485 24.9589 15.7994 22.141C12.5673 25.5372 10.1126 29.7273 8.45206 33.3446C8.05497 34.2347 7.65494 34.5465 6.76897 34.5465H0.647711C0.236321 34.5465 -0.180901 34.0759 0.0821641 33.3446C1.90517 28.389 5.53457 22.2203 10.7182 17.5766C6.66043 12.6892 2.72254 6.73033 1.17945 1.71261C0.945074 0.958409 1.35644 0.504883 1.91957 0.504883H9.10678C9.8895 0.504883 10.2899 0.822291 10.687 1.71261C12.4445 5.80052 14.8676 9.69566 16.708 11.8671Z" fill="#D92231"/>
</svg>
